{"title":"50 Cent Ft. Trey Songz - Smoke [Explicit] 1080p [Sbyky]","uid":10127609,"size":89050863,"categoryP":"video","categoryS":"music_videos","magnet":"?xt=urn:btih:2e998425c1f5bfb6d7d7ddcb5a88e6f2d890f315&amp;dn=50+Cent+Ft.+Trey+Songz+-+Smoke+%5BExplicit%5D+1080p+%5BSbyky%5D&amp;tr=udp%3A%2F%2Ftracker.openbittorrent.com%3A80&amp;tr=udp%3A%2F%2Fopen.demonii.com%3A1337&amp;tr=udp%3A%2F%2Ftracker.coppersurfer.tk%3A6969&amp;tr=udp%3A%2F%2Fexodus.desync.com%3A6969","seeders":3,"leechers":0,"uploader":"Sbyky","files":1,"time":1399796651,"description":"\n\nGeneral\nComplete name                            : 50 Cent Ft. Trey Songz - Smoke [Explicit] 1080p [Sbyky].MP4\nFormat                                   : MPEG-4\nFormat profile                           : Base Media\nCodec ID                                 : isom\nFile size                                : 84.9 MiB\nDuration                                 : 4mn 12s\nOverall bit rate mode                    : Variable\nOverall bit rate                         : 2 819 Kbps\nEncoded date                             : UTC 2014-03-31 18:46:17\nTagged date                              : UTC 2014-03-31 18:46:17\n\nVideo\nID                                       : 1\nFormat                                   : AVC\nFormat/Info                              : Advanced Video Codec\nFormat profile                           : &lt;a class=&quot;__cf_email__&quot; href=&quot;/cdn-cgi/l/email-protection&quot; data-cfemail=&quot;b7ffded0dff7fb839987&quot;&gt;[email&amp;#160;protected]&lt;/a&gt;&lt;script cf-hash='f9e31' type=&quot;text/javascript&quot;&gt;\n/* &lt;![CDATA[ */!function(){try{var t=&quot;currentScript&quot;in document?document.currentScript:function(){for(var t=document.getElementsByTagName(&quot;script&quot;),e=t.length;e--;)if(t[e].getAttribute(&quot;cf-hash&quot;))return t[e]}();if(t&amp;&amp;t.previousSibling){var e,r,n,i,c=t.previousSibling,a=c.getAttribute(&quot;data-cfemail&quot;);if(a){for(e=&quot;&quot;,r=parseInt(a.substr(0,2),16),n=2;a.length-n;n+=2)i=parseInt(a.substr(n,2),16)^r,e+=String.fromCharCode(i);e=document.createTextNode(e),c.parentNode.replaceChild(e,c)}}}catch(u){}}();/* ]]&gt; */&lt;/script&gt;\nFormat settings, CABAC                   : Yes\nFormat settings, ReFrames                : 2 frames\nCodec ID                                 : avc1\nCodec ID/Info                            : Advanced Video Coding\nDuration                                 : 4mn 12s\nBit rate                                 : 2 691 Kbps\nWidth                                    : 1 920 pixels\nHeight                                   : 1 080 pixels\nDisplay aspect ratio                     : 16:9\nFrame rate mode                          : Variable\nFrame rate                               : 23.976 fps\nMinimum frame rate                       : 23.974 fps\nMaximum frame rate                       : 24.617 fps\nColor space                              : YUV\nChroma subsampling                       : 4:2:0\nBit depth                                : 8 bits\nScan type                                : Progressive\nBits/(Pixel*Frame)                       : 0.054\nStream size                              : 81.0 MiB (95%)\nEncoded date                             : UTC 2014-03-31 18:46:17\nTagged date                              : UTC 2014-03-31 18:46:17\n\nAudio\nID                                       : 2\nFormat                                   : AAC\nFormat/Info                              : Advanced Audio Codec\nFormat profile                           : LC\nCodec ID                                 : 40\nDuration                                 : 4mn 12s\nBit rate mode                            : Variable\nBit rate                                 : 126 Kbps\nChannel(s)                               : 2 channels\nChannel positions                        : Front: L R\nSampling rate                            : 44.1 KHz\nCompression mode                         : Lossy\nStream size                              : 3.78 MiB (4%)\nEncoded date                             : UTC 2014-03-31 18:46:02\nTagged date                              : UTC 2014-03-31 18:46:02\n\nShared By Sbyky\n","torrent":{"xt":"urn:btih:2e998425c1f5bfb6d7d7ddcb5a88e6f2d890f315","amp;dn":"50+Cent+Ft.+Trey+Songz+-+Smoke+%5BExplicit%5D+1080p+%5BSbyky%5D","amp;tr":["udp%3A%2F%2Ftracker.openbittorrent.com%3A80","udp%3A%2F%2Fopen.demonii.com%3A1337","udp%3A%2F%2Ftracker.coppersurfer.tk%3A6969","udp%3A%2F%2Fexodus.desync.com%3A6969"],"infoHash":"2e998425c1f5bfb6d7d7ddcb5a88e6f2d890f315","infoHashBuffer":{"type":"Buffer","data":[46,153,132,37,193,245,191,182,215,215,221,203,90,136,230,242,216,144,243,21]},"announce":[],"urlList":[]}}